# xmcd
#
# Track frame offsets:
# 150
# 15990
# 32840
# 45545
# 58970
# 70717
# 85935
# 101490
# 116297
# 132462
# 147537
# 164007
# 178382
# 193892
#
# Disc length: 2755 seconds
#
#
# Revision: 0
# Processed by: cddbd v1.5.1PL0 Copyright (c) Steve Scherf et al.
# Submitted via: FreeRIP 2.942 
#
DISCID=cd0ac10e
DTITLE=Banda Max  - Nave da Ilusao
DYEAR=1900
DGENRE=Forró
TTITLE0=Nave da ilusao
TTITLE1=Salgadinho
TTITLE2=Acorde de viola
TTITLE3=Carente de prazer
TTITLE4=Danca do vira
TTITLE5=Me da teu carinho
TTITLE6=Peao de vaquejada
TTITLE7=Preciso de voce
TTITLE8=Marca registrada
TTITLE9=Chora de saudade
TTITLE10=Nao acredito
TTITLE11=Fantasias
TTITLE12=Vamos ser feliz
TTITLE13=Fogo de amor
EXTD=
EXTT0=
EXTT1=
EXTT2=
EXTT3=
EXTT4=
EXTT5=
EXTT6=
EXTT7=
EXTT8=
EXTT9=
EXTT10=
EXTT11=
EXTT12=
EXTT13=
PLAYORDER=
